<svg enable-background="new 0 0 32 32" viewBox="0 0 32 32" xmlns="http://www.w3.org/2000/svg"><g id="Guides"/><g id="_x32_0"/><g id="_x31_9"/><g id="_x31_8"/><g id="_x31_7"/><g id="_x31_6"/><g id="_x31_5"/><g id="_x31_4"/><g id="_x31_3"/><g id="_x31_2"/><g id="_x31_1"/><g id="_x31_0"/><g id="_x30_9"/><g id="_x30_8"/><g id="_x30_7"/><g id="_x30_6"/><g id="_x30_5"/><g id="_x30_4"/><g id="_x30_3"/><g id="_x30_2"/><g id="_x30_1"><path d="m14.707 5.707 1.293-1.293 1.293 1.293c.195.195.451.293.707.293s.512-.098.707-.293c.391-.391.391-1.023 0-1.414l-2-2c-.391-.391-1.023-.391-1.414 0l-2 2c-.391.391-.391 1.023 0 1.414s1.023.391 1.414 0z"/><path d="m29.707 15.293-2-2c-.391-.391-1.023-.391-1.414 0s-.391 1.023 0 1.414l1.293 1.293-1.293 1.293c-.391.391-.391 1.023 0 1.414.195.195.451.293.707.293s.512-.098.707-.293l2-2c.391-.391.391-1.023 0-1.414z"/><path d="m5.707 13.293c-.391-.391-1.023-.391-1.414 0l-2 2c-.391.391-.391 1.023 0 1.414l2 2c.195.195.451.293.707.293s.512-.098.707-.293c.391-.391.391-1.023 0-1.414l-1.293-1.293 1.293-1.293c.391-.391.391-1.023 0-1.414z"/><path d="m17.293 26.293-1.293 1.293-1.293-1.293c-.391-.391-1.023-.391-1.414 0s-.391 1.023 0 1.414l2 2c.195.195.451.293.707.293s.512-.098.707-.293l2-2c.391-.391.391-1.023 0-1.414s-1.023-.391-1.414 0z"/><path d="m20.938 10h-1.32l-.724-1.447c-.169-.339-.515-.553-.894-.553h-4c-.379 0-.725.214-.895.553l-.723 1.447h-1.32c-2.24 0-4.062 1.822-4.062 4.062v5.877c0 2.239 1.822 4.061 4.062 4.061h9.877c2.239 0 4.061-1.822 4.061-4.062v-5.877c0-2.239-1.822-4.061-4.062-4.061zm2.062 9.938c0 1.137-.925 2.062-2.062 2.062h-9.877c-1.136 0-2.061-.925-2.061-2.062v-5.877c0-1.136.925-2.061 2.062-2.061h9.877c1.136 0 2.061.925 2.061 2.062z"/><path d="m16 13c-2.206 0-4 1.794-4 4s1.794 4 4 4 4-1.794 4-4-1.794-4-4-4zm0 6c-1.103 0-2-.897-2-2s.897-2 2-2 2 .897 2 2-.897 2-2 2z"/><path d="m11.03 13h-.01c-.552 0-.995.448-.995 1s.453 1 1.005 1c.553 0 1-.448 1-1s-.447-1-1-1z"/></g></svg>