<?xml version="1.0" encoding="UTF-8"?>
<!DOCTYPE svg PUBLIC "-//W3C//DTD SVG 1.1//EN" "http://www.w3.org/Graphics/SVG/1.1/DTD/svg11.dtd">
<!-- Creator: CorelDRAW -->
<svg xmlns="http://www.w3.org/2000/svg" xml:space="preserve" width="6.82666in" height="6.82666in" style="shape-rendering:geometricPrecision; text-rendering:geometricPrecision; image-rendering:optimizeQuality; fill-rule:evenodd; clip-rule:evenodd"
viewBox="0 0 6.82666 6.82666"
 xmlns:xlink="http://www.w3.org/1999/xlink">
 <defs>
  <style type="text/css">
   <![CDATA[
    .fil2 {fill:none}
    .fil1 {fill:#0277BD}
    .fil0 {fill:#039BE5}
    .fil10 {fill:#1A1A1A}
    .fil4 {fill:#90ADA3}
    .fil7 {fill:#B71C1C}
    .fil9 {fill:#232323;fill-rule:nonzero}
    .fil8 {fill:#303435;fill-rule:nonzero}
    .fil5 {fill:#424242;fill-rule:nonzero}
    .fil13 {fill:#898C8B;fill-rule:nonzero}
    .fil3 {fill:#A0BAB1;fill-rule:nonzero}
    .fil12 {fill:#BABABA;fill-rule:nonzero}
    .fil11 {fill:#C2C4C3;fill-rule:nonzero}
    .fil6 {fill:#E53935;fill-rule:nonzero}
   ]]>
  </style>
   <clipPath id="id0">
    <path d="M3.41333 0c1.88513,0 3.41333,1.5282 3.41333,3.41333 0,1.88513 -1.5282,3.41333 -3.41333,3.41333 -1.88513,0 -3.41333,-1.5282 -3.41333,-3.41333 0,-1.88513 1.5282,-3.41333 3.41333,-3.41333z"/>
   </clipPath>
 </defs>
 <g id="Layer_x0020_1">
  <metadata id="CorelCorpID_0Corel-Layer"/>
  <path class="fil0" d="M3.41333 0c1.88513,0 3.41333,1.5282 3.41333,3.41333 0,1.88513 -1.5282,3.41333 -3.41333,3.41333 -1.88513,0 -3.41333,-1.5282 -3.41333,-3.41333 0,-1.88513 1.5282,-3.41333 3.41333,-3.41333z"/>
  <g style="clip-path:url(#id0)">
   <g id="_414970064">
    <g>
     <polygon id="_3602262161" class="fil1" points="2.72797,1.9858 6.51424,5.77207 6.52349,5.78187 6.53252,5.7918 6.54131,5.80187 6.54989,5.81207 6.55822,5.82239 6.56633,5.83284 6.57422,5.84341 6.58187,5.8541 6.5893,5.86489 6.59649,5.8758 6.60346,5.88681 6.61019,5.89793 6.6167,5.90915 6.62298,5.92046 6.62902,5.93187 6.63484,5.94337 6.64043,5.95495 6.64579,5.96661 6.65092,5.97836 6.65582,5.99019 6.66049,6.00208 6.66493,6.01405 6.66914,6.02608 6.67312,6.03818 6.67687,6.05033 6.68039,6.06255 6.68368,6.07481 6.68674,6.08713 6.68957,6.0995 6.69217,6.1119 6.69453,6.12435 2.90826,2.33808 2.9059,2.32563 2.9033,2.31322 2.90047,2.30086 2.89741,2.28854 2.89412,2.27628 2.8906,2.26406 2.88685,2.25191 2.88287,2.23981 2.87867,2.22778 2.87422,2.21581 2.86956,2.20391 2.86465,2.19209 2.85952,2.18034 2.85417,2.16868 2.84857,2.15709 2.84276,2.1456 2.83671,2.13419 2.83043,2.12288 2.82393,2.11166 2.81719,2.10054 2.81022,2.08953 2.80303,2.07862 2.7956,2.06783 2.78795,2.05714 2.78007,2.04657 2.77196,2.03612 2.76362,2.0258 2.75505,2.0156 2.74625,2.00553 2.73722,1.99559 "/>
     <polygon id="_360226120" class="fil1" points="2.41021,2.15947 6.19648,5.94574 6.1927,5.94219 6.18884,5.9385 6.18489,5.93465 6.18087,5.93068 6.17677,5.92657 6.1726,5.92236 2.38633,2.13609 2.3905,2.1403 2.3946,2.14441 2.39863,2.14838 2.40257,2.15222 2.40644,2.15592 "/>
     <polygon id="_360227272" class="fil1" points="3.52875,1.9065 7.31502,5.69277 7.30291,5.68473 7.29075,5.677 7.27854,5.66958 7.26626,5.66251 7.25395,5.65578 7.24159,5.64943 7.22919,5.64345 7.21676,5.63788 7.2043,5.63272 7.19181,5.62799 7.1793,5.62371 7.16678,5.61989 7.15424,5.61654 7.14169,5.61368 7.12914,5.61133 7.11659,5.60951 7.10404,5.60822 7.0915,5.60749 7.07898,5.60733 7.06647,5.60775 7.05399,5.60877 7.04153,5.61041 7.0291,5.61267 7.01671,5.61559 7.00435,5.61917 6.99204,5.62342 6.97978,5.62837 6.96757,5.63402 6.95542,5.64041 6.94332,5.64753 6.9313,5.6554 6.91933,5.66405 3.13307,1.87778 3.14503,1.86913 3.15706,1.86126 3.16915,1.85413 3.1813,1.84775 3.19351,1.8421 3.20578,1.83715 3.21809,1.83289 3.23044,1.82931 3.24283,1.8264 3.25526,1.82413 3.26772,1.8225 3.2802,1.82148 3.29271,1.82106 3.30524,1.82122 3.31777,1.82195 3.33032,1.82324 3.34287,1.82506 3.35542,1.82741 3.36797,1.83027 3.38051,1.83361 3.39303,1.83744 3.40554,1.84172 3.41803,1.84645 3.43049,1.85161 3.44293,1.85718 3.45532,1.86316 3.46768,1.86951 3.48,1.87624 3.49227,1.88331 3.50448,1.89072 3.51665,1.89846 "/>
     <polygon id="_360227440" class="fil1" points="3.839,2.3605 7.62526,6.14678 7.62088,6.14246 3.83461,2.35619 "/>
     <polygon id="_360226840" class="fil1" points="3.75336,2.10829 7.53963,5.89456 7.52937,5.88342 7.51898,5.87231 7.50848,5.86124 7.49785,5.85024 7.48713,5.8393 7.47628,5.82845 7.46534,5.8177 7.45429,5.80706 7.44315,5.79654 7.43191,5.78616 7.42057,5.77593 7.40915,5.76586 7.39765,5.75597 7.38606,5.74627 7.37439,5.73677 7.36265,5.72748 7.35084,5.71843 7.33896,5.70962 7.32702,5.70106 7.31502,5.69277 3.52875,1.9065 3.54075,1.91479 3.5527,1.92335 3.56457,1.93216 3.57639,1.94121 3.58813,1.9505 3.59979,1.96 3.61138,1.9697 3.62289,1.97959 3.63431,1.98965 3.64564,1.99989 3.65688,2.01027 3.66802,2.02078 3.67907,2.03143 3.69002,2.04218 3.70086,2.05303 3.71159,2.06396 3.72221,2.07497 3.73271,2.08604 3.7431,2.09715 "/>
     <polygon id="_360227776" class="fil1" points="3.98962,2.49386 7.77589,6.28013 7.62526,6.14678 3.839,2.3605 "/>
     <polygon id="_360228184" class="fil1" points="3.13307,1.87778 6.91933,5.66405 6.91477,5.6677 6.90994,5.67083 6.9049,5.67346 6.89967,5.67557 6.89431,5.67717 6.88884,5.67825 6.88331,5.67883 6.87776,5.6789 6.87222,5.67846 6.86673,5.67752 6.86133,5.67607 6.85606,5.67412 6.85096,5.67166 6.84607,5.6687 6.84142,5.66525 6.83706,5.6613 3.05079,1.87502 3.05515,1.87898 3.0598,1.88243 3.06469,1.88539 3.06979,1.88785 3.07506,1.8898 3.08046,1.89124 3.08595,1.89219 3.09149,1.89263 3.09705,1.89256 3.10257,1.89198 3.10804,1.89089 3.11341,1.8893 3.11863,1.88719 3.12367,1.88456 3.1285,1.88143 "/>
     <polygon id="_360227560" class="fil1" points="4.81513,2.31783 8.60139,6.1041 8.60665,6.11045 8.61053,6.11665 8.61319,6.12267 8.61476,6.12852 8.61541,6.13418 8.61528,6.13963 8.61453,6.14487 8.6133,6.1499 8.61175,6.15468 8.61002,6.15922 8.60828,6.1635 8.60665,6.16752 8.60531,6.17126 8.60439,6.17471 8.60405,6.17786 4.81778,2.39159 4.81812,2.38844 4.81904,2.38499 4.82039,2.38125 4.82201,2.37723 4.82376,2.37295 4.82548,2.36841 4.82704,2.36363 4.82826,2.3586 4.82902,2.35336 4.82914,2.34791 4.82849,2.34225 4.82692,2.3364 4.82426,2.33037 4.82039,2.32418 "/>
     <polygon id="_360227992" class="fil1" points="4.81778,2.39159 8.60405,6.17786 8.60149,6.1816 8.59913,6.18543 8.59695,6.18935 8.59498,6.19335 8.5932,6.19741 8.59162,6.20155 8.59023,6.20574 8.58904,6.20998 8.58805,6.21426 8.58726,6.21857 8.58667,6.22291 8.58628,6.22727 8.58609,6.23164 8.58609,6.23601 8.5863,6.24039 8.58672,6.24474 4.80045,2.45847 4.80004,2.45411 4.79983,2.44974 4.79982,2.44537 4.80001,2.441 4.8004,2.43664 4.80099,2.4323 4.80178,2.42798 4.80278,2.4237 4.80396,2.41946 4.80535,2.41528 4.80693,2.41114 4.80871,2.40707 4.81069,2.40307 4.81286,2.39916 4.81522,2.39533 "/>
     <polygon id="_360228088" class="fil1" points="4.80045,2.45847 8.58672,6.24474 8.58733,6.24901 8.58812,6.25325 8.5891,6.25746 8.59026,6.26163 8.59161,6.26576 8.59315,6.26983 8.59486,6.27384 8.59676,6.27778 8.59885,6.28166 8.60112,6.28545 8.60357,6.28915 8.60621,6.29276 8.60904,6.29627 4.82277,2.51 4.81994,2.50649 4.81731,2.50288 4.81485,2.49918 4.81258,2.49539 4.8105,2.49151 4.80859,2.48757 4.80688,2.48356 4.80535,2.47948 4.804,2.47536 4.80283,2.47119 4.80185,2.46698 4.80106,2.46274 "/>
     <polygon id="_360227968" class="fil1" points="5.26397,2.71534 9.05024,6.50161 9.05413,6.50625 9.05748,6.51118 9.06029,6.51636 9.06255,6.52175 9.06426,6.52731 9.06543,6.53298 9.06604,6.53874 9.0661,6.54452 9.06561,6.5503 9.06456,6.55602 9.06295,6.56164 9.06078,6.56713 9.05806,6.57243 9.05477,6.5775 9.05092,6.5823 5.26465,2.79602 5.2685,2.79122 5.27179,2.78615 5.27452,2.78085 5.27668,2.77537 5.27829,2.76975 5.27934,2.76402 5.27983,2.75825 5.27977,2.75246 5.27916,2.74671 5.278,2.74104 5.27628,2.73548 5.27402,2.73009 5.27122,2.72491 5.26787,2.71998 "/>
     <polygon id="_360228040" class="fil1" points="4.57396,2.82489 8.36023,6.61116 8.35703,6.60788 8.35365,6.60472 4.56738,2.81844 4.57076,2.82161 "/>
     <polygon id="_360227824" class="fil1" points="4.50281,2.79404 8.28908,6.58031 8.28487,6.58048 8.28069,6.5808 8.27652,6.5813 8.27237,6.58196 8.26826,6.58279 8.26418,6.5838 8.26015,6.58498 8.25615,6.58633 8.25221,6.58785 8.24833,6.58956 8.2445,6.59143 8.24074,6.59349 8.23706,6.59573 8.23344,6.59815 8.22991,6.60075 8.22647,6.60354 4.4402,2.81727 4.44365,2.81448 4.44718,2.81188 4.45079,2.80946 4.45448,2.80722 4.45823,2.80516 4.46206,2.80328 4.46594,2.80158 4.46989,2.80006 4.47388,2.7987 4.47791,2.79753 4.48199,2.79652 4.48611,2.79569 4.49025,2.79502 4.49442,2.79453 4.49861,2.7942 "/>
     <polygon id="_360227608" class="fil1" points="4.4402,2.81727 8.22647,6.60354 8.22217,6.6075 8.21757,6.61097 8.21271,6.61394 8.20763,6.61641 8.20237,6.61838 8.19696,6.61985 8.19145,6.6208 8.18587,6.62124 8.18028,6.62117 8.1747,6.62057 8.16918,6.61945 8.16375,6.61781 8.15846,6.61563 8.15334,6.61293 8.14844,6.60968 8.1438,6.6059 4.35753,2.81963 4.36218,2.82341 4.36707,2.82665 4.37219,2.82936 4.37748,2.83154 4.38291,2.83318 4.38843,2.8343 4.39401,2.83489 4.39961,2.83497 4.40518,2.83453 4.41069,2.83357 4.4161,2.83211 4.42136,2.83014 4.42644,2.82767 4.43131,2.8247 4.43591,2.82123 "/>
     <polygon id="_360227728" class="fil1" points="4.59139,3.02696 8.37765,6.81324 8.37359,6.80931 4.58732,3.02304 "/>
     <polygon id="_360228976" class="fil1" points="4.56738,2.81844 8.35365,6.60472 8.35013,6.60172 8.3465,6.59892 8.34277,6.59633 8.33896,6.59393 8.33507,6.59173 8.3311,6.58973 8.32707,6.58793 8.32298,6.58632 8.31885,6.5849 8.31467,6.58368 8.31044,6.58265 8.3062,6.5818 8.30193,6.58115 8.29765,6.58069 8.29336,6.58041 8.28908,6.58031 4.50281,2.79404 4.50709,2.79413 4.51138,2.79441 4.51567,2.79488 4.51993,2.79553 4.52418,2.79637 4.5284,2.79741 4.53258,2.79863 4.53672,2.80005 4.54081,2.80166 4.54483,2.80346 4.5488,2.80546 4.55269,2.80766 4.5565,2.81006 4.56023,2.81265 4.56386,2.81545 "/>
     <polygon id="_360229000" class="fil1" points="5.26465,2.79602 9.05092,6.5823 8.68004,7.0005 4.89377,3.21423 "/>
     <polygon id="_360228904" class="fil1" points="4.89377,3.21423 8.68004,7.0005 8.6738,7.00682 8.6675,7.01191 8.66115,7.01583 8.65476,7.01865 8.64834,7.02045 8.64192,7.0213 8.6355,7.02127 8.6291,7.02042 8.62274,7.01884 8.61643,7.01659 8.61018,7.01374 8.60401,7.01037 8.59794,7.00654 8.59197,7.00232 8.58613,6.9978 8.58043,6.99303 4.79416,3.20676 4.79986,3.21152 4.8057,3.21605 4.81167,3.22027 4.81774,3.22409 4.82391,3.22747 4.83016,3.23032 4.83647,3.23257 4.84283,3.23415 4.84923,3.235 4.85565,3.23503 4.86207,3.23418 4.86849,3.23238 4.87488,3.22956 4.88123,3.22564 4.88754,3.22055 "/>
     <polygon id="_360228640" class="fil1" points="4.79416,3.20676 8.58043,6.99303 8.37765,6.81324 4.59139,3.02696 "/>
     <polygon id="_360229024" class="fil1" points="4.35753,2.81963 8.1438,6.6059 8.07146,6.54184 4.28519,2.75557 "/>
     <polygon id="_360228712" class="fil1" points="2.27162,2.01508 6.05789,5.80135 5.94292,5.68648 2.15665,1.9002 "/>
     <polygon id="_360228328" class="fil1" points="2.27568,2.01917 6.06194,5.80544 6.05789,5.80135 2.27162,2.01508 "/>
     <polygon id="_360228736" class="fil1" points="2.90826,2.33808 6.69453,6.12435 6.6965,6.13557 6.69829,6.14683 6.69988,6.1581 6.70129,6.16939 6.7025,6.1807 6.70353,6.19203 6.70437,6.20337 6.70502,6.21472 6.70548,6.22607 6.70575,6.23743 6.70584,6.24879 6.70573,6.26015 6.70544,6.2715 6.70496,6.28285 6.70429,6.29419 6.70344,6.30552 6.70239,6.31684 6.70116,6.32814 6.69974,6.33942 6.69813,6.35068 6.69633,6.36191 6.69435,6.37312 6.69218,6.3843 6.68982,6.39544 6.68727,6.40656 6.68454,6.41763 6.68162,6.42866 6.67851,6.43965 6.67521,6.4506 6.67173,6.4615 6.66806,6.47235 6.6642,6.48315 2.87794,2.69687 2.8818,2.68608 2.88546,2.67523 2.88894,2.66433 2.89224,2.65338 2.89535,2.64239 2.89827,2.63136 2.901,2.62028 2.90355,2.60917 2.90591,2.59802 2.90808,2.58685 2.91007,2.57564 2.91186,2.56441 2.91347,2.55315 2.91489,2.54187 2.91612,2.53057 2.91717,2.51925 2.91802,2.50792 2.91869,2.49658 2.91917,2.48523 2.91946,2.47387 2.91957,2.46252 2.91948,2.45115 2.91921,2.4398 2.91875,2.42844 2.9181,2.41709 2.91726,2.40576 2.91623,2.39443 2.91502,2.38312 2.91361,2.37183 2.91202,2.36056 2.91024,2.3493 "/>
     <polygon id="_360228760" class="fil1" points="1.7419,2.45608 5.52817,6.24235 5.53639,6.25029 5.54408,6.25785 5.55118,6.26493 5.55763,6.27143 5.56336,6.27726 5.56832,6.2823 5.57244,6.28644 1.78617,2.50017 1.78205,2.49602 1.77709,2.49098 1.77136,2.48516 1.76491,2.47866 1.75781,2.47157 1.75012,2.46402 "/>
     <polygon id="_360228376" class="fil1" points="2.10941,3.13634 5.89568,6.92261 5.88322,6.92025 5.8708,6.91765 5.85843,6.91483 5.8461,6.91177 5.83383,6.90848 5.82161,6.90496 5.80944,6.90122 5.79733,6.89724 5.78529,6.89303 5.77331,6.88859 5.76141,6.88393 5.74958,6.87903 5.73782,6.87391 5.72615,6.86855 5.71456,6.86296 5.70305,6.85715 5.69163,6.85111 5.68031,6.84483 5.66909,6.83833 5.65796,6.8316 5.64694,6.82464 5.63602,6.81745 5.62522,6.81003 5.61452,6.80238 5.60395,6.7945 5.59349,6.7864 5.58316,6.77807 5.57295,6.7695 5.56287,6.76071 5.55293,6.7517 1.76666,2.96543 1.77661,2.97444 1.78668,2.98323 1.79689,2.9918 1.80722,3.00013 1.81768,3.00823 1.82826,3.01611 1.83895,3.02376 1.84976,3.03118 1.86067,3.03837 1.87169,3.04533 1.88282,3.05206 1.89404,3.05856 1.90537,3.06483 1.91678,3.07088 1.92829,3.07669 1.93988,3.08228 1.95156,3.08763 1.96331,3.09276 1.97514,3.09766 1.98705,3.10232 1.99902,3.10676 2.01107,3.11097 2.02317,3.11494 2.03534,3.11869 2.04756,3.12221 2.05983,3.1255 2.07216,3.12856 2.08454,3.13138 2.09695,3.13398 "/>
     <polygon id="_360229432" class="fil1" points="1.78617,2.50017 5.57244,6.28644 5.58261,6.29661 5.59138,6.30537 5.59884,6.31283 5.60511,6.31909 5.61027,6.32425 5.61444,6.32841 5.61772,6.33169 5.62022,6.33418 5.62202,6.33599 5.62325,6.33721 5.624,6.33796 5.62437,6.33833 5.62447,6.33843 5.6244,6.33836 1.83813,2.55209 1.8382,2.55216 1.8381,2.55206 1.83773,2.55169 1.83698,2.55094 1.83576,2.54972 1.83395,2.54791 1.83146,2.54542 1.82818,2.54214 1.824,2.53798 1.81884,2.53281 1.81257,2.52656 1.80511,2.5191 1.79634,2.51034 "/>
     <polygon id="_360229408" class="fil1" points="2.44524,5.08062 6.23151,8.86689 6.22311,8.8763 6.21447,8.88507 6.20561,8.89321 6.19654,8.90073 6.18727,8.90764 6.17781,8.91395 6.16818,8.91969 6.15839,8.92485 6.14844,8.92946 6.13835,8.93353 6.12813,8.93707 6.11779,8.94009 6.10735,8.94261 6.09681,8.94463 6.08619,8.94618 6.0755,8.94726 6.06474,8.94789 6.05394,8.94807 6.04309,8.94783 6.03223,8.94719 6.02134,8.94613 6.01046,8.94469 5.99958,8.94287 5.98872,8.94069 5.9779,8.93816 5.96711,8.93529 5.95639,8.9321 5.94572,8.9286 5.93513,8.9248 5.92464,8.92071 5.91424,8.91635 5.90395,8.91174 2.11769,5.12546 2.12797,5.13008 2.13837,5.13444 2.14887,5.13853 2.15945,5.14233 2.17012,5.14583 2.18085,5.14902 2.19163,5.15189 2.20246,5.15442 2.21331,5.1566 2.22419,5.15842 2.23507,5.15986 2.24596,5.16091 2.25683,5.16156 2.26767,5.1618 2.27847,5.16161 2.28923,5.16099 2.29992,5.15991 2.31054,5.15836 2.32108,5.15633 2.33152,5.15382 2.34186,5.1508 2.35208,5.14726 2.36217,5.14319 2.37212,5.13858 2.38191,5.13342 2.39154,5.12768 2.401,5.12137 2.41027,5.11446 2.41934,5.10694 2.4282,5.0988 2.43684,5.09003 "/>
     <polygon id="_360229792" class="fil1" points="2.11769,5.12546 5.90395,8.91174 5.89978,8.90976 5.89562,8.90773 5.89147,8.90566 5.88733,8.90354 5.88319,8.90137 5.87907,8.89915 5.87496,8.8969 5.87086,8.89459 5.86677,8.89225 5.86269,8.88986 5.85863,8.88743 5.85458,8.88496 5.85055,8.88244 5.84653,8.87989 5.84253,8.87729 5.83854,8.87465 5.83457,8.87198 5.83062,8.86926 5.82669,8.86651 5.82278,8.86372 5.81888,8.8609 5.81501,8.85804 5.81116,8.85514 5.80733,8.8522 5.80352,8.84924 5.79974,8.84624 5.79598,8.8432 5.79224,8.84013 5.78854,8.83704 2.00227,5.05076 2.00598,5.05386 2.00971,5.05693 2.01347,5.05996 2.01726,5.06296 2.02106,5.06593 2.02489,5.06887 2.02874,5.07176 2.03261,5.07463 2.03651,5.07745 2.04042,5.08024 2.04435,5.08299 2.0483,5.0857 2.05227,5.08838 2.05626,5.09102 2.06026,5.09361 2.06428,5.09617 2.06831,5.09869 2.07236,5.10116 2.07643,5.10359 2.0805,5.10598 2.08459,5.10832 2.08869,5.11063 2.0928,5.11288 2.09693,5.11509 2.10106,5.11726 2.1052,5.11939 2.10935,5.12146 2.11352,5.12348 "/>
     <polygon id="_360229720" class="fil1" points="1.8379,2.55185 5.62417,6.33813 5.6242,6.33817 5.62449,6.33846 5.62512,6.33909 5.6262,6.34017 5.62784,6.3418 5.63013,6.34409 5.63318,6.34714 5.63709,6.35105 5.64196,6.35592 5.64791,6.36187 5.65503,6.36898 5.66342,6.37737 5.67319,6.38713 5.68444,6.39837 5.69728,6.4112 5.7118,6.42571 1.92554,2.63944 1.91101,2.62493 1.89818,2.6121 1.88693,2.60086 1.87715,2.59109 1.86876,2.5827 1.86165,2.57559 1.8557,2.56965 1.85082,2.56478 1.84691,2.56087 1.84386,2.55782 1.84157,2.55553 1.83994,2.5539 1.83885,2.55281 1.83822,2.55219 1.83794,2.5519 "/>
     <polygon id="_360229528" class="fil1" points="2.46848,3.10605 6.25475,6.89232 6.24394,6.89617 6.23308,6.89984 6.22217,6.90332 6.21122,6.90661 6.20022,6.90972 6.18917,6.91263 6.17809,6.91537 6.16697,6.91791 6.15581,6.92026 6.14463,6.92243 6.13341,6.92442 6.12217,6.92621 6.1109,6.92782 6.09961,6.92924 6.0883,6.93047 6.07698,6.93151 6.06564,6.93237 6.05429,6.93304 6.04293,6.93352 6.03157,6.93381 6.0202,6.93391 6.00883,6.93383 5.99747,6.93356 5.98611,6.93309 5.97475,6.93244 5.96341,6.93161 5.95207,6.93058 5.94075,6.92936 5.92945,6.92796 5.91817,6.92637 5.90691,6.92459 5.89568,6.92261 2.10941,3.13634 2.12064,3.13831 2.1319,3.14009 2.14319,3.14169 2.15448,3.14309 2.1658,3.14431 2.17714,3.14533 2.18848,3.14617 2.19984,3.14682 2.2112,3.14728 2.22257,3.14756 2.23393,3.14764 2.2453,3.14754 2.25667,3.14724 2.26802,3.14676 2.27937,3.1461 2.29071,3.14524 2.30204,3.1442 2.31334,3.14296 2.32463,3.14155 2.3359,3.13994 2.34714,3.13815 2.35836,3.13616 2.36955,3.13399 2.3807,3.13164 2.39182,3.12909 2.40291,3.12636 2.41395,3.12344 2.42495,3.12034 2.43591,3.11705 2.44681,3.11357 2.45767,3.1099 "/>
     <polygon id="_360229480" class="fil1" points="3.36073,3.99788 7.147,7.78415 6.23151,8.86689 2.44524,5.08062 "/>
     <polygon id="_360229288" class="fil1" points="4.88117,5.08375 8.66744,8.87002 8.65544,8.88172 8.64321,8.89304 8.63077,8.904 8.61811,8.91458 8.60525,8.9248 8.5922,8.93465 8.57895,8.94412 8.56552,8.95323 8.55192,8.96196 8.53815,8.97033 8.52422,8.97833 8.51014,8.98595 8.49591,8.99321 8.48154,9.00009 8.46705,9.00661 8.45243,9.01275 8.43769,9.01852 8.42284,9.02392 8.40789,9.02894 8.39285,9.0336 8.37772,9.03789 8.3625,9.0418 8.34722,9.04534 8.33187,9.04851 8.31646,9.05131 8.301,9.05373 8.2855,9.05578 8.26996,9.05746 8.25439,9.05877 8.2388,9.0597 8.2232,9.06026 8.20758,9.06045 4.42131,5.27418 4.43693,5.27399 4.45253,5.27343 4.46812,5.2725 4.48369,5.27119 4.49923,5.26951 4.51473,5.26746 4.53019,5.26504 4.5456,5.26224 4.56095,5.25907 4.57624,5.25553 4.59145,5.25162 4.60658,5.24733 4.62162,5.24267 4.63657,5.23765 4.65142,5.23225 4.66616,5.22648 4.68078,5.22033 4.69528,5.21382 4.70964,5.20694 4.72387,5.19968 4.73795,5.19206 4.75189,5.18406 4.76565,5.17569 4.77926,5.16696 4.79269,5.15785 4.80593,5.14837 4.81898,5.13853 4.83185,5.12831 4.8445,5.11772 4.85694,5.10677 4.86917,5.09544 "/>
     <polygon id="_360229624" class="fil1" points="4.42131,5.27418 8.20758,9.06045 8.19197,9.06026 8.17637,9.0597 8.16078,9.05877 8.1452,9.05746 8.12967,9.05578 8.11416,9.05373 8.0987,9.05131 8.08329,9.04851 8.06793,9.04534 8.05265,9.0418 8.03743,9.03789 8.0223,9.0336 8.00724,9.02894 7.99229,9.02392 7.97743,9.01852 7.96269,9.01275 7.94806,9.00661 7.93354,9.00009 7.91917,8.99321 7.90493,8.98595 7.89083,8.97833 7.87688,8.97033 7.86309,8.96196 7.84947,8.95323 7.83602,8.94412 7.82275,8.93465 7.80967,8.9248 7.79678,8.91458 7.7841,8.904 7.77163,8.89304 7.75937,8.88172 3.9731,5.09544 3.98536,5.10677 3.99783,5.11772 4.01052,5.12831 4.0234,5.13853 4.03648,5.14837 4.04975,5.15785 4.0632,5.16696 4.07682,5.17569 4.09061,5.18406 4.10456,5.19206 4.11866,5.19968 4.1329,5.20694 4.14728,5.21382 4.16179,5.22033 4.17642,5.22648 4.19117,5.23225 4.20602,5.23765 4.22098,5.24267 4.23603,5.24733 4.25116,5.25162 4.26638,5.25553 4.28167,5.25907 4.29702,5.26224 4.31243,5.26504 4.32789,5.26746 4.3434,5.26951 4.35894,5.27119 4.37451,5.2725 4.3901,5.27343 4.4057,5.27399 "/>
     <polygon id="_360229264" class="fil1" points="4.28519,2.75557 8.07146,6.54184 7.43762,7.25598 3.65135,3.46971 "/>
     <polygon id="_360229648" class="fil1" points="5.07212,4.62385 8.85839,8.41012 8.8582,8.42572 8.85764,8.44131 8.8567,8.45689 8.8554,8.47245 8.85372,8.48798 8.85166,8.50347 8.84924,8.51892 8.84643,8.53432 8.84326,8.54966 8.83971,8.56494 8.8358,8.58014 8.8315,8.59526 8.82683,8.6103 8.8218,8.62525 8.81639,8.64009 8.8106,8.65483 8.80445,8.66944 8.79792,8.68394 8.79102,8.69831 8.78374,8.71254 8.7761,8.72663 8.76808,8.74057 8.75969,8.75434 8.75093,8.76796 8.74179,8.78139 8.73229,8.79465 8.72241,8.80772 8.71216,8.8206 8.70154,8.83328 8.69054,8.84574 8.67918,8.858 8.66744,8.87002 4.88117,5.08375 4.89291,5.07172 4.90428,5.05947 4.91527,5.04701 4.92589,5.03433 4.93614,5.02145 4.94602,5.00838 4.95552,4.99512 4.96466,4.98169 4.97342,4.96807 4.98181,4.9543 4.98983,4.94036 4.99748,4.92627 5.00475,4.91204 5.01165,4.89767 5.01818,4.88317 5.02433,4.86856 5.03012,4.85382 5.03553,4.83898 5.04057,4.82403 5.04523,4.80899 5.04953,4.79387 5.05344,4.77867 5.05699,4.76339 5.06017,4.74805 5.06297,4.73265 5.06539,4.7172 5.06745,4.7017 5.06913,4.68618 5.07044,4.67062 5.07137,4.65504 5.07193,4.63945 "/>
     <polygon id="_360230104" class="fil1" points="4.89291,4.17598 8.67918,7.96225 8.69054,7.9745 8.70154,7.98696 8.71216,7.99964 8.72241,8.01252 8.73229,8.02559 8.74179,8.03885 8.75093,8.05229 8.75969,8.0659 8.76808,8.07968 8.7761,8.09361 8.78374,8.1077 8.79102,8.12193 8.79792,8.1363 8.80445,8.1508 8.8106,8.16542 8.81639,8.18015 8.8218,8.195 8.82683,8.20994 8.8315,8.22498 8.8358,8.2401 8.83971,8.25531 8.84326,8.27058 8.84643,8.28592 8.84924,8.30132 8.85166,8.31677 8.85372,8.33226 8.8554,8.34779 8.8567,8.36335 8.85764,8.37893 8.8582,8.39452 8.85839,8.41012 5.07212,4.62385 5.07193,4.60825 5.07137,4.59265 5.07044,4.57707 5.06913,4.56152 5.06745,4.54599 5.06539,4.5305 5.06297,4.51505 5.06017,4.49965 5.05699,4.48431 5.05344,4.46904 5.04953,4.45383 5.04523,4.4387 5.04057,4.42367 5.03553,4.40872 5.03012,4.39388 5.02433,4.37915 5.01818,4.36452 5.01165,4.35003 5.00475,4.33566 4.99748,4.32143 4.98983,4.30734 4.98181,4.29341 4.97342,4.27963 4.96466,4.26602 4.95552,4.25257 4.94602,4.23932 4.93614,4.22624 4.92589,4.21337 4.91527,4.20069 4.90428,4.18823 "/>
    </g>
    <path id="_414970088" class="fil1" d="M2.48343 1.8223c0.0858425,0.0338307 0.166154,0.0849764 0.235055,0.153831 0.10237,0.102287 0.165756,0.228969 0.189776,0.361945 0.0220433,0.119598 0.011811,0.243929 -0.0303268,0.358795l0.493681 0.493307 0.618 -0.696319 -0.150622 -0.133358c-0.0248031,-0.0220276 -0.0271614,-0.060189 -0.0051063,-0.0849764l0.0318819 -0.0357992c-0.0901614,-0.111343 -0.208654,-0.246287 -0.337024,-0.333228 -0.128748,-0.0873425 -0.268504,-0.125114 -0.395681,-0.0287244 -0.0236102,0.0208504 -0.0598346,0.0196693 -0.0822795,-0.00275197 -0.0257087,-0.025685 -0.0173543,-0.0849843 0,-0.0849843 0.0135945,-0.0137913 0.0272874,-0.0267283 0.0409961,-0.0390394 0.160602,-0.14565 0.317217,-0.198925 0.461689,-0.198512 0.275811,0.000795276 0.507366,0.197252 0.637906,0.320173l0.0137795 -0.0153425c0.0220512,-0.0251811 0.060248,-0.0271496 0.0850512,-0.00511417l0.518134 0.459126c0.0405315,0.0350276 0.00944094,0.0642835 0.00944094,0.0802559 -0.0141732,0.0196732 -0.0200709,0.0436772 -0.0173346,0.0668858 0.00276772,0.022811 0.0133898,0.0448425 0.0319016,0.0613701 0.0188898,0.0165157 0.0421417,0.0243858 0.0649606,0.0243898 0.0220551,-0.000385827 0.0445,-0.00787402 0.0621969,-0.0232126 0.0224449,-0.0224291 0.0586732,-0.0240039 0.0826929,-0.00235827l0.217335 0.192382c0.0250945,0.021937 0.0271614,0.060189 0.00511811,0.0849803l-0.370882 0.418209c-0.0330512,0.0371299 -0.0695787,0.0184803 -0.0996142,-0.00747638l-0.202772 -0.179791c-0.0228268,-0.0200709 -0.0275433,-0.0546811 -0.00944094,-0.0802638l0.000393701 0c0.0141772,-0.0196693 0.0196811,-0.0436614 0.0169252,-0.0668819 -0.00235827,-0.022815 -0.0133858,-0.0448465 -0.0318819,-0.061374 -0.0185157,-0.0165276 -0.0417323,-0.0244016 -0.0645709,-0.0244016 -0.0224488,0.000413386 -0.0444843,0.00787402 -0.0626063,0.0232244 -0.0220512,0.0224291 -0.0586535,0.0239882 -0.0826732,0.00235827l-0.0723386 -0.0640551 -0.633839 0.714142 0.544756 0.544331c0.109055,-0.0405197 0.226382,-0.0503543 0.339386,-0.0302795 0.126768,0.0224291 0.248031,0.0826181 0.345677,0.180185 0.127173,0.127075 0.190945,0.29348 0.190945,0.459898 0,0.166425 -0.0637717,0.332827 -0.190945,0.459906 -0.12678,0.126697 -0.293311,0.190425 -0.459858,0.190425 -0.166547,0 -0.333094,-0.0637283 -0.460252,-0.190425 -0.0925276,-0.0928307 -0.151197,-0.206539 -0.176394,-0.326126 -0.0224449,-0.106626 -0.0177126,-0.217575 0.0137795,-0.32222l-0.437717 -0.437528 -0.915488 1.08274c-0.088378,0.103917 -0.21848,0.0954488 -0.327559,0.0448465 -0.0445,-0.0208543 -0.0878031,-0.0499724 -0.126394,-0.084189 -0.0385787,-0.034626 -0.0724528,-0.0739685 -0.0984331,-0.116063 -0.0626102,-0.101618 -0.0858858,-0.229039 0.00709449,-0.32811l0.998256 -1.06153 -0.429728 -0.429528c-0.114976,0.0420945 -0.239386,0.0523228 -0.359071,0.0302953 -0.133079,-0.0240039 -0.259854,-0.0873543 -0.362224,-0.189642 -0.0688976,-0.0688465 -0.120079,-0.149102 -0.153937,-0.234874 -0.00849606,-0.0217992 -0.0463307,-0.27774 -0.0464606,-0.277744 0.00706299,-0.180945 0.200161,0.0268976 0.239382,0.0660906 0.116402,0.116295 -0.0249173,-0.0248976 0.139366,0.139268 0.0011811,0.00117717 0.17522,-0.0464331 0.19215,-0.050752l0.186606 -0.0499685c-0.000385827,-0.00156693 0.0945118,-0.336764 0.105921,-0.379252 -0.0397677,-0.0369803 -0.0956772,-0.101508 -0.138594,-0.144386l-0.114965 -0.114878c-0.0283543,-0.0283268 -0.0283543,-0.0747559 0,-0.103075 0.0149646,-0.0149528 0.0350472,-0.0220354 0.0547323,-0.021252 0.0921378,-0.00275197 0.185039,0.0125906 0.272047,0.0464252z"/>
   </g>
  </g>
  <path class="fil2" d="M3.41333 0c1.88513,0 3.41333,1.5282 3.41333,3.41333 0,1.88513 -1.5282,3.41333 -3.41333,3.41333 -1.88513,0 -3.41333,-1.5282 -3.41333,-3.41333 0,-1.88513 1.5282,-3.41333 3.41333,-3.41333z"/>
  <path class="fil3" d="M2.21164 1.7748c0.0922402,-0.00288976 0.184866,0.0126496 0.271843,0.0466339 0.0859055,0.033563 0.166268,0.084878 0.235307,0.153917 0.102201,0.102201 0.165437,0.229098 0.189689,0.362016 0.0218307,0.119661 0.011752,0.243949 -0.0302205,0.35915l1.31785 1.31785c0.108996,-0.040189 0.226461,-0.0502362 0.339492,-0.0301299 0.126791,0.0225551 0.248091,0.0827165 0.345839,0.180465 0.127055,0.127055 0.190583,0.293579 0.190583,0.460087 0,0.166512 -0.0635276,0.333031 -0.190583,0.460083l0 3.93701e-006c-0.127055,0.127047 -0.293575,0.190583 -0.460083,0.190583 -0.166512,0 -0.333028,-0.0635354 -0.460079,-0.190583l-3.93701e-006 -3.93701e-006c-0.0925827,-0.0925827 -0.151421,-0.206449 -0.176512,-0.326181 -0.0223504,-0.10665 -0.0176811,-0.217846 0.0139843,-0.322634l-1.33002 -1.33001c-0.115201,0.0419764 -0.239484,0.0520551 -0.35915,0.0302205 -0.132921,-0.024252 -0.259815,-0.0874843 -0.362016,-0.189685 -0.0690394,-0.0690394 -0.120354,-0.149402 -0.153917,-0.235303 -0.0347244,-0.088874 -0.0501969,-0.18365 -0.0464252,-0.277878l0.0726614 0.00284646 -0.0728858 -0.00292126c0.00161417,-0.040252 0.0355551,-0.0715748 0.0758071,-0.0699646 0.0193386,0.000775591 0.0366142,0.00901575 0.0491654,0.0218307l0.11424 0.114236 0.13974 0.139736c0.000818898,0.000814961 0.175059,-0.0464961 0.191744,-0.0509646l0.186882 -0.0500748c-0.000444882,-0.00167717 0.0945,-0.336941 0.105866,-0.379362 -0.0396654,-0.0369291 -0.0957638,-0.101728 -0.138799,-0.144764l-0.114752 -0.114752 -7.87402e-006 3.93701e-006c-0.0284843,-0.0284843 -0.0284843,-0.0746732 0,-0.103157 0.0150512,-0.0150472 0.0350472,-0.0221457 0.0547598,-0.0212913zm2.50421 2.771l-0.0455433 -0.169969 -0.169972 -0.0455394 -0.169965 -0.0455472 -0.124528 0.124528 -0.124528 0.124531 0.0455472 0.169961 0.0455394 0.169972 0.169969 0.0455394 0.169972 0.0455472 0.124524 -0.124531 0.124531 -0.124524 -0.0455472 -0.169969z"/>
  <path class="fil4" d="M2.31442 1.89559l0.037811 0.037815c0.0459921,0.0459882 0.0885866,0.0979134 0.135878,0.141941l0.0501654 0.0467047 -0.0177402 0.0662047c-0.0294449,0.109878 -0.0752756,0.264315 -0.0981457,0.349535l0.0214567 0.0810079 -0.296654 0.0794843c-0.0316929,0.00849213 -0.0633583,0.0171299 -0.0950472,0.0256457 -0.0629252,0.0169134 -0.149358,0.053248 -0.206783,-0.00417717l-0.167165 -0.167161 -0.0103268 -0.000405512c0.00641339,0.0401417 0.0170827,0.0796024 0.0319331,0.117614 0.0288031,0.0737087 0.0723976,0.140232 0.128354,0.196189 0.0825157,0.0825118 0.18711,0.137217 0.301882,0.158157 0.100083,0.0182598 0.204043,0.00966142 0.299677,-0.025185l0.068248 -0.0248661 1.42962 1.42962 -0.0197362 0.065311c-0.0260669,0.0862638 -0.0300118,0.17811 -0.0115354,0.266291 0.0214291,0.10226 0.0716693,0.195079 0.145559,0.268969 0.101063,0.101063 0.236579,0.157201 0.379488,0.157201 0.142909,0 0.278429,-0.0561378 0.379492,-0.157205 0.101071,-0.101063 0.157201,-0.236587 0.157201,-0.379492 0,-0.142909 -0.0561299,-0.278433 -0.157201,-0.379496 -0.0779134,-0.0779134 -0.176724,-0.129547 -0.285209,-0.148843 -0.0935591,-0.0166457 -0.190929,-0.0080315 -0.280102,0.0248504l-0.0684409 0.0252362 -1.42079 -1.42079 0.0248661 -0.0682441c0.0348465,-0.0956339 0.0434449,-0.199594 0.025185,-0.299677 -0.020937,-0.114768 -0.0756417,-0.21937 -0.158157,-0.301882 -0.0559567,-0.0559567 -0.122484,-0.0995512 -0.196193,-0.12835 -0.0410315,-0.0160354 -0.0839882,-0.0261339 -0.127591,-0.032zm2.44894 2.38719l0.125154 0.467059 -0.171059 0.171047 -0.171051 0.171067 -0.233531 -0.0625827 -0.233531 -0.0625709 -0.0625669 -0.233528 -0.0625787 -0.23352 0.34211 -0.342118 0.233524 0.0625748 0.233531 0.0625709z"/>
  <polygon class="fil5" points="1.83079,2.49041 1.83055,2.48952 1.83079,2.49041 "/>
  <polygon class="fil5" points="1.83087,2.49071 1.83084,2.49059 1.83084,2.49059 1.83087,2.49071 "/>
  <polygon class="fil5" points="1.85081,2.56532 1.83087,2.49071 1.83348,2.48817 1.83336,2.48813 1.83084,2.49059 1.83079,2.49041 1.83079,2.49041 1.83084,2.49059 1.8308,2.49064 1.83083,2.49076 1.83087,2.49071 1.84997,2.56219 "/>
  <polygon class="fil5" points="2.24216,2.38046 2.24147,2.37684 2.24133,2.37694 2.24197,2.38026 "/>
  <polygon class="fil5" points="2.24216,2.38046 2.24197,2.38026 2.24203,2.38057 2.24219,2.38061 "/>
  <polygon class="fil5" points="2.24219,2.38061 2.24203,2.38057 2.25671,2.45656 "/>
  <polygon class="fil5" points="4.91753,4.53475 4.91746,4.53454 4.91492,4.53706 4.91513,4.53715 "/>
  <polygon class="fil5" points="4.97135,4.48095 4.97134,4.48095 4.97239,4.47991 "/>
  <path class="fil6" d="M4.38147 2.5474l-0.196961 -0.17465c-0.0271929,-0.0241142 -0.108205,0.0228307 -0.180929,0.104846l-0.790122 0.891055c-0.0727244,0.0820197 -0.109642,0.168063 -0.0824449,0.192177l0.196961 0.17465c0.0271929,0.0241142 0.108205,-0.0228307 0.180929,-0.104846l0.790122 -0.891055c0.0727244,-0.0820197 0.109642,-0.168063 0.0824449,-0.192177z"/>
  <rect class="fil7" transform="matrix(-0.212437 -0.188373 -0.747275 0.842737 4.16014 2.64427)" width="0.213331" height="1.06667"/>
  <path class="fil8" d="M3.17631 3.24002l-1.27603 1.35781c-0.0892165,0.094937 -0.074437,0.219185 -0.00718504,0.32848 0.0258543,0.0420236 0.059815,0.081752 0.0983504,0.116028 0.0386811,0.0344134 0.0820236,0.0635472 0.126476,0.0842638 0.116972,0.0545157 0.243039,0.0550787 0.327417,-0.0447638l1.199 -1.41881c0.000984252,-0.000976378 0.00194488,-0.00198031 0.00287402,-0.0030315 0.024185,-0.0272756 0.0204685,-0.0700709 -0.00830709,-0.0955827l-0.36811 -0.326413 0 3.93701e-006c-0.0281102,-0.0249488 -0.0701181,-0.0242717 -0.0946654,0.00185039l0.000177165 0.000169291z"/>
  <path class="fil9" d="M1.86201 4.86565c0.00358268,0.00872835 0.00753543,0.0174094 0.0118307,0.0260315l1.43581 -1.61924 -0.0195433 -0.0173268 -1.4281 1.61053zm0.290201 0.275256c0.00898819,0.00331496 0.0179961,0.0062874 0.0270118,0.00890551l1.42953 -1.61215 -0.0195472 -0.0173307 -1.437 1.62057z"/>
  <circle class="fil10" transform="matrix(-0.586224 -0.519819 -0.519819 0.586224 2.15878 4.85563)" r="0.106665"/>
  <path class="fil11" d="M5.25971 2.71061l-0.217307 -0.192693c-0.0240748,-0.0213465 -0.0604764,-0.0199213 -0.0828228,0.00268898 -0.0177362,0.0151024 -0.0399291,0.0228543 -0.0622205,0.0229882 -0.0229409,0.000137795 -0.0461142,-0.00790945 -0.0647402,-0.0244252l0 -3.93701e-006c-0.018626,-0.0165157 -0.0293858,-0.0385551 -0.0319961,-0.0613504 -0.00264567,-0.0231181 0.00296063,-0.0471181 0.0171142,-0.0670512l-0.0489685 -0.0349213 0.0491496 0.0348937c0.0180866,-0.0254764 0.0135748,-0.0601929 -0.00949213,-0.0802913l-0.518043 -0.459362c-0.0249094,-0.0220866 -0.0630079,-0.0197992 -0.0850945,0.00511024l-0.0138583 0.015626c-0.204496,-0.192953 -0.657787,-0.567102 -1.14062,-0.0828819l-0.000106299 -0.000102362c-0.0234961,0.0235748 -0.023437,0.0617441 0.000137795,0.0852402 0.0226102,0.0225354 0.0586339,0.0234016 0.0822756,0.00264173 0.12711,-0.0964173 0.266937,-0.058752 0.395902,0.0288504 0.128067,0.0869921 0.246717,0.22185 0.336764,0.3335l-0.0315866 0.035622c-0.0220827,0.0249055 -0.0197953,0.0630039 0.00511024,0.0850906l0.518382 0.459657c0.0240748,0.0213504 0.0604724,0.0199213 0.0828228,-0.00268898 0.0177323,-0.0151024 0.0399213,-0.0228543 0.0622165,-0.0229882 0.0229449,-0.000133858 0.0461142,0.00790945 0.0647402,0.0244252l3.93701e-006 3.93701e-006c0.018622,0.0165157 0.0293858,0.0385591 0.0319921,0.0613504 0.00264961,0.023122 -0.00296063,0.0471181 -0.0171102,0.0670512l0.0489646 0.0349213 -0.0491496 -0.0348898c-0.0180866,0.0254724 -0.0135709,0.060189 0.00949606,0.0802874l0.216969 0.192394c0.0249094,0.0220866 0.0630079,0.0197992 0.0850945,-0.0051063l0.371091 -0.418496c0.0220827,-0.0249094 0.0197953,-0.0630079 -0.00511024,-0.0850906z"/>
  <path class="fil12" d="M3.12676 1.71961c-0.0252126,0.020878 -0.0505354,0.0438465 -0.0759449,0.0693307l-0.000106299 -0.000106299c-0.0234961,0.0235748 -0.023437,0.0617441 0.000137795,0.0852402 0.0226102,0.0225354 0.0586339,0.0234016 0.0822756,0.00264567 0.12711,-0.0964213 0.266937,-0.0587559 0.395902,0.0288465 0.128067,0.0869921 0.246717,0.221854 0.336764,0.3335l-0.0315866 0.035622c-0.0220827,0.0249055 -0.0197992,0.0630039 0.00511024,0.0850906l0.518378 0.459657c0.0240787,0.0213504 0.0604764,0.0199252 0.0828268,-0.00268898 0.0177323,-0.0151024 0.0399252,-0.0228543 0.0622165,-0.0229882 0.0229449,-0.000137795 0.0461142,0.00790945 0.0647402,0.0244252l3.93701e-006 3.93701e-006c0.018626,0.0165157 0.0293858,0.0385551 0.0319961,0.0613504 0.00264173,0.023122 -0.00296063,0.0471181 -0.0171142,0.0670551l0.0489646 0.0349213 -0.0491496 -0.0348976c-0.0180866,0.0254764 -0.0135709,0.0601929 0.00949213,0.0802913l0.202724 0.17976 0.247417 -0.279024c0.0220866,-0.0249094 0.0197992,-0.0630079 -0.0051063,-0.0850945l-0.217307 -0.192689c-0.0240787,-0.0213504 -0.0604764,-0.0199213 -0.0828228,0.00268504 -0.0177362,0.0151063 -0.0399291,0.0228543 -0.0622205,0.0229921 -0.0229409,0.000133858 -0.0461142,-0.00790945 -0.0647402,-0.0244252l-3.93701e-006 -3.93701e-006c-0.018626,-0.0165157 -0.0293819,-0.0385591 -0.0319961,-0.0613504 -0.00264173,-0.023122 0.00296457,-0.0471181 0.0171142,-0.0670551l-0.0489646 -0.0349213 0.0491496 0.0348976c0.0180866,-0.0254764 0.0135748,-0.0601929 -0.00949213,-0.0802913l-0.518043 -0.459362c-0.0249094,-0.0220866 -0.0630079,-0.0197992 -0.0850945,0.0051063l-0.0138583 0.0156299c-0.161441,-0.152331 -0.477969,-0.41748 -0.841661,-0.284154z"/>
  <path class="fil13" d="M5.25971 2.71061l-0.217307 -0.192693c-0.0240748,-0.0213465 -0.0604764,-0.0199213 -0.0828228,0.00268898 -0.0177362,0.0151024 -0.0399291,0.0228543 -0.0622205,0.0229882 -0.0229409,0.000137795 -0.0461142,-0.00790945 -0.0647402,-0.0244252l0 -3.93701e-006 -0.26515 0.29902 3.93701e-006 3.93701e-006c0.018622,0.0165157 0.0293858,0.0385591 0.0319921,0.0613504 0.00264961,0.023122 -0.00296063,0.0471181 -0.0171102,0.0670512l0.0489646 0.0349213 -0.0491496 -0.0348898c-0.0180866,0.0254724 -0.0135709,0.060189 0.00949606,0.0802874l0.216969 0.192394c0.0249094,0.0220866 0.0630079,0.0197992 0.0850945,-0.0051063l0.371091 -0.418496c0.0220827,-0.0249094 0.0197953,-0.0630079 -0.00511024,-0.0850906z"/>
 </g>
</svg>
