<?xml version="1.0" encoding="utf-8"?>
<!-- Generator: Adobe Illustrator 18.0.0, SVG Export Plug-In . SVG Version: 6.00 Build 0)  -->
<!DOCTYPE svg PUBLIC "-//W3C//DTD SVG 1.1//EN" "http://www.w3.org/Graphics/SVG/1.1/DTD/svg11.dtd">
<svg version="1.1" id="Icon_Set" xmlns="http://www.w3.org/2000/svg" xmlns:xlink="http://www.w3.org/1999/xlink" x="0px" y="0px"
	 viewBox="0 0 512 512" style="enable-background:new 0 0 512 512;" xml:space="preserve">
<style type="text/css">
	.st0{fill:#4C4372;}
	.st1{fill:#F0C48A;}
	.st2{fill:#FD919E;}
	.st3{fill:#E8677D;}
	.st4{fill:#D3E6F8;}
	.st5{fill:#A4CFF2;}
	.st6{fill:#7BABF1;}
	.st7{fill:#FFFFFF;}
</style>
<g>
	<g>
		<g>
			<g>
				<circle class="st1" cx="256" cy="256" r="207"/>
			</g>
		</g>
	</g>
	<g>
		<g>
			<g>
				<path class="st2" d="M371.833,127.257h-47.061H277.71h-47.062h-47.061h-47.063H89.465v84.794c0,12.995,10.535,23.53,23.53,23.53
					l0,0c12.995,0,23.53-10.535,23.53-23.53v-11.755c0-12.996,10.535-23.531,23.531-23.531l0,0
					c12.996,0,23.531,10.535,23.531,23.531v17.637c0,12.996,10.534,23.531,23.53,23.531l0,0c12.995,0,23.53-10.535,23.53-23.531l0,0
					c0-12.45,10.093-22.542,22.543-22.542h0.988c12.995,0,23.53,10.535,23.53,23.531v0.972c0,12.996,10.535,23.531,23.53,23.531
					h0.001c12.995,0,23.53-10.535,23.53-23.531v-19.597c0-12.996,10.535-23.531,23.531-23.531l0,0
					c12.996,0,23.53,10.535,23.53,23.531v50.966c0,12.996,10.535,23.531,23.531,23.531l0,0c12.995,0,23.53-10.535,23.53-23.531
					V127.257H371.833z"/>
			</g>
		</g>
		<g>
			<g>
				<path class="st3" d="M398.825,274.537c11.355-1.674,20.07-11.456,20.07-23.275V127.257h-20.07V274.537z"/>
			</g>
		</g>
		<g>
			<g>
				<rect x="228.324" y="385.378" class="st4" width="49.752" height="120.759"/>
			</g>
		</g>
		<g>
			<g>
				<rect x="228.324" y="385.378" class="st4" width="49.752" height="120.759"/>
			</g>
		</g>
		<g>
			<g>
				<rect x="258.291" y="385.378" class="st5" width="19.785" height="120.759"/>
			</g>
		</g>
		<g>
			<g>
				<rect x="228.324" y="475.428" class="st6" width="49.752" height="30.709"/>
			</g>
		</g>
		<g>
			<g>
				<polygon class="st4" points="278.077,338.37 228.323,338.37 228.323,358.934 240.762,385.378 265.638,385.378 278.077,358.934 
									"/>
			</g>
		</g>
		<g>
			<g>
				<polygon class="st5" points="265.638,385.378 278.077,358.934 278.077,338.37 258.291,338.37 258.291,385.378 				"/>
			</g>
		</g>
		<g>
			<g>
				<path class="st2" d="M414.109,127.257H92.29c-14.976,0-27.116-12.14-27.116-27.116V32.979c0-14.976,12.141-27.116,27.116-27.116
					h321.818c14.976,0,27.116,12.141,27.116,27.116v67.163C441.225,115.117,429.084,127.257,414.109,127.257z"/>
			</g>
		</g>
		<g>
			<g>
				<path class="st3" d="M441.225,100.141V85.419H65.174v14.722c0,14.976,12.141,27.116,27.116,27.116h321.818
					C429.084,127.257,441.225,115.117,441.225,100.141z"/>
			</g>
		</g>
		<g>
			<g>
				<path class="st6" d="M46.316,85.419h18.858V47.701H46.316c-10.416,0-18.859,8.443-18.859,18.859v0
					C27.457,76.976,35.9,85.419,46.316,85.419z"/>
			</g>
		</g>
		<g>
			<g>
				<path class="st0" d="M395.365,280.655c-16.208,0-29.394-13.186-29.394-29.394v-50.966c0-9.742-7.926-17.668-17.668-17.668
					c-9.742,0-17.668,7.926-17.668,17.668v19.597c0,16.208-13.187,29.393-29.395,29.393c-16.207,0-29.393-13.186-29.393-29.393
					v-0.972c0-9.742-7.926-17.668-17.668-17.668h-0.988c-9.198,0-16.68,7.482-16.68,16.68c0,16.208-13.186,29.393-29.393,29.393
					c-16.209,0-29.395-13.186-29.395-29.393v-17.637c0-9.742-7.926-17.668-17.668-17.668c-9.742,0-17.668,7.926-17.668,17.668
					v11.755c0,16.207-13.186,29.393-29.393,29.393c-16.209,0-29.395-13.186-29.395-29.393v-84.793c0-3.238,2.625-5.863,5.862-5.863
					h329.431c3.237,0,5.862,2.625,5.862,5.863v124.004C424.757,267.469,411.572,280.655,395.365,280.655z M348.303,170.902
					c16.207,0,29.394,13.186,29.394,29.393v50.966c0,9.742,7.925,17.668,17.668,17.668c9.742,0,17.668-7.926,17.668-17.668V133.12
					H95.327v78.931c0,9.742,7.927,17.668,17.67,17.668c9.742,0,17.668-7.926,17.668-17.668v-11.755
					c0-16.207,13.186-29.393,29.393-29.393c16.207,0,29.393,13.186,29.393,29.393v17.637c0,9.742,7.926,17.668,17.668,17.668
					s17.67-7.926,17.67-17.668c0-15.663,12.742-28.405,28.404-28.405h0.988c16.207,0,29.393,13.186,29.393,29.393v0.972
					c0,9.742,7.926,17.668,17.668,17.668c9.743,0,17.668-7.926,17.668-17.668v-19.597
					C318.909,184.088,332.095,170.902,348.303,170.902z"/>
			</g>
		</g>
		<g>
			<g>
				<path class="st0" d="M414.108,133.12H92.29c-18.185,0-32.979-14.793-32.979-32.979V32.979C59.312,14.794,74.106,0,92.29,0
					h321.817c18.186,0,32.979,14.794,32.979,32.979v67.163C447.087,118.326,432.293,133.12,414.108,133.12z M92.29,11.725
					c-11.719,0-21.253,9.535-21.253,21.253v67.163c0,11.719,9.534,21.253,21.253,21.253h321.817c11.72,0,21.255-9.534,21.255-21.253
					V32.979c0-11.719-9.535-21.253-21.255-21.253H92.29z"/>
			</g>
		</g>
		<g>
			<g>
				<path class="st0" d="M65.174,91.281H46.316c-13.632,0-24.723-11.09-24.723-24.721c0-13.632,11.091-24.722,24.723-24.722h18.858
					c3.238,0,5.863,2.625,5.863,5.862v37.719C71.038,88.656,68.413,91.281,65.174,91.281z M46.316,53.563
					c-7.167,0-12.997,5.83-12.997,12.997s5.83,12.997,12.997,12.997h12.996V53.563H46.316z"/>
			</g>
		</g>
		<g>
			<g>
				<path class="st0" d="M278.077,512h-49.754c-3.237,0-5.862-2.625-5.862-5.862V385.378c0-3.238,2.625-5.863,5.862-5.863h49.754
					c3.237,0,5.862,2.625,5.862,5.863v120.759C283.939,509.375,281.314,512,278.077,512z M234.186,500.275h38.027V391.241h-38.027
					V500.275z"/>
			</g>
		</g>
		<g>
			<g>
				<path class="st0" d="M278.077,512h-49.754c-3.237,0-5.862-2.625-5.862-5.862V385.378c0-3.238,2.625-5.863,5.862-5.863h49.754
					c3.237,0,5.862,2.625,5.862,5.863v120.759C283.939,509.375,281.314,512,278.077,512z M234.186,500.275h38.027V391.241h-38.027
					V500.275z"/>
			</g>
		</g>
		<g>
			<g>
				<path class="st0" d="M265.638,391.241h-24.877c-2.271,0-4.339-1.312-5.306-3.367l-12.438-26.445
					c-0.367-0.78-0.558-1.632-0.558-2.495V338.37c0-3.237,2.625-5.862,5.862-5.862h49.754c3.237,0,5.862,2.625,5.862,5.862v20.563
					c0,0.863-0.191,1.715-0.558,2.495l-12.438,26.445C269.977,389.929,267.909,391.241,265.638,391.241z M244.483,379.516h17.434
					l10.297-21.892v-13.391h-38.027v13.391L244.483,379.516z"/>
			</g>
		</g>
		<g>
			<g>
				<path class="st0" d="M278.077,481.291h-49.754c-3.237,0-5.862-2.625-5.862-5.863c0-3.237,2.625-5.862,5.862-5.862h49.754
					c3.237,0,5.862,2.625,5.862,5.862C283.939,478.666,281.314,481.291,278.077,481.291z"/>
			</g>
		</g>
		<g>
			<g>
				<path class="st0" d="M253.2,344.233c-3.238,0-5.863-2.625-5.863-5.863v-34.053c0-1.969,0.988-3.805,2.63-4.891L478.682,148.23
					V72.422h-37.457c-3.237,0-5.862-2.625-5.862-5.863c0-3.237,2.625-5.862,5.862-5.862h43.319c3.238,0,5.862,2.625,5.862,5.862
					v84.823c0,1.968-0.987,3.805-2.629,4.891L259.062,307.469v30.901C259.062,341.608,256.437,344.233,253.2,344.233z"/>
			</g>
		</g>
	</g>
</g>
</svg>
