<svg id="Geometry" enable-background="new 0 0 64 64" viewBox="0 0 64 64" xmlns="http://www.w3.org/2000/svg"><g><g><path d="m54.5276 40.8991c.01169-.1032.03519-.20498.03519-.30949s-.0235-.20629-.03519-.30949v-32.40465h-27.47463v33.12929h.04723c.48256 3.17952 6.42663 5.69397 13.70769 5.69397s13.22513-2.51445 13.70768-5.69397h.01204v-.10566z" fill="#53c496"/><path d="m54.55828 40.58138c0 .10665-.01779.21331-.03559.31996v.10666c-.49758 3.18196-6.43509 5.68851-13.72343 5.68851-7.27054 0-13.20795-2.50655-13.70574-5.68851h-.03559v-7.50175c.48-.28437.9778-.53327 1.49328-.76438 5.45751-1.88431 11.76805-5.49289 16.05226-12.53243 2.55972-4.24862 3.69744-8.5505 4.08869-12.33691h5.83054v32.40657c.01779.10676.03558.21341.03558.30228z" opacity=".15"/><path d="m40.80719 47.58744c-7.56197 0-13.71084-2.63523-14.53283-6.17318-.07031-.12326-.11024-.26213-.11024-.40969v-33.12874c0-.49128.39754-.88883.88883-.88883h27.4755c.49128 0 .88882.39754.88882.88883v32.40484c.02083.08854.03472.1979.03472.30901s-.01389.22047-.02951.32984l-.00521.08506c0 .10416-.01736.20485-.05034.29686-.71697 3.59522-6.91792 6.286-14.55974 6.286zm-12.86542-6.86236c.01649.04688.02951.09548.03646.14582.36109 2.37483 5.36768 4.93889 12.82896 4.93889s12.46961-2.56406 12.8307-4.93889c.00174-.00868.00347-.0191.00521-.02777 0-.01562 0-.02777.00174-.03472 0-.01389.01736-.13888.0191-.15277-.00174-.01389-.0191-.27081-.0191-.2847l-.00522-31.60628h-25.69785zm26.58668.27949h.01736z" fill="#101016"/><ellipse cx="40.808" cy="7.875" fill="#6fd0ab" rx="13.755" ry="6.109"/><path d="m54.55828 7.87252c0 2.25765-2.75523 4.23082-6.87951 5.27968 1.06655-3.76861 1.27986-7.32392 1.11993-10.2393 3.50193 1.10214 5.75958 2.91539 5.75958 4.95962z" opacity=".15"/><path d="m40.80719 14.8736c-8.21123 0-14.64306-3.07357-14.64306-6.99777s6.43184-6.99864 14.64306-6.99864 14.64481 3.07444 14.64481 6.99864-6.43358 6.99777-14.64481 6.99777zm0-12.21876c-7.58193 0-12.86541 2.75154-12.86541 5.22099s5.28348 5.22012 12.86541 5.22012c7.5828 0 12.86715-2.75067 12.86715-5.22012s-5.28435-5.22099-12.86715-5.22099z" fill="#101016"/></g><g><path d="m16.33292 12.78654-15.13081 30.03237c-.70029 1.38998-.17318 3.08488 1.19192 3.83253l.00002.00001c9.97755 5.46454 22.05272 5.46454 32.03027 0l.00002-.00001c1.36509-.74764 1.89221-2.44255 1.19192-3.83253l-15.1308-30.03237c-.85907-1.70511-3.29348-1.70511-4.15254 0z" fill="#ffdc6e"/><path d="m35.92852 44.11889c0 1.01328-.55096 2.00875-1.51096 2.52423-4.97752 2.73766-10.4882 4.10637-15.99899 4.10637-3.99972 0-7.99944-.72879-11.80364-2.18648 4.74641-1.63541 10.2393-4.78189 13.97243-10.91481 4.14185-6.84392 3.99972-13.84788 3.35968-17.97204l11.6614 23.14507c.21353.40883.32008.85324.32008 1.29766z" opacity=".15"/><path d="m18.40946 51.66008c-5.64804 0-11.29434-1.40963-16.44242-4.22887-1.79414-.98257-2.47899-3.18554-1.55892-5.0118l15.13175-30.03261c.54857-1.0902 1.64745-1.76724 2.86872-1.7681 1.22127 0 2.32102.6779 2.87046 1.7681l15.13088 30.03261c.92007 1.828.23436 4.02923-1.55892 5.0118-5.14721 2.81924-10.79525 4.22887-16.44155 4.22887zm-.00087-39.26373c-.55378 0-1.03291.29599-1.28116.78988 0 0 0 .00087-.00087.00087l-15.13088 30.03086c-.48694.96868-.12412 2.13353.82546 2.65433 9.7606 5.34685 21.41516 5.34511 31.17576 0 .94958-.5208 1.31241-1.68565.82633-2.65433l-15.13088-30.03087c-.24998-.49563-.72911-.79074-1.28376-.79074zm-2.07537.39059h.01736z" fill="#101016"/></g><g><path d="m28.41414 32.83714v18.93256c0 .81748.44685 1.56957 1.16481 1.96049l15.11438 8.22947c.6655.36235 1.46939.36235 2.13489 0l15.11438-8.22947c.71796-.39091 1.16481-1.14301 1.16481-1.96049v-18.93256c0-.8178-.44719-1.57013-1.16558-1.96091l-15.11438-8.22174c-.6651-.36179-1.46825-.36179-2.13334 0l-15.11438 8.22174c-.7184.39078-1.16559 1.14311-1.16559 1.96091z" fill="#fb9b5d"/><path d="m45.76389 40.95429v21.27533c.36364 0 .72722-.08867 1.06422-.26604l15.11182-8.22987c.71834-.39021 1.17064-1.14406 1.17064-1.95994v-18.93405c0-.41684-.11529-.81593-.3193-1.15294z" fill="#e96f39"/><path d="m28.41726 32.83972v18.93406c0 .81588.44342 1.56973 1.16176 1.95994l15.11182 8.22987c.32813.17738.70059.26604 1.07304.26604v-21.27534l-17.02732-9.26751c-.204.337-.3193.73609-.3193 1.15294z" fill="#f98143"/><path d="m63.10868 32.83083v18.93193c0 .81776-.44441 1.58214-1.17309 1.97317l-15.11005 8.23054c-.65794.35555-1.47559.35555-2.13309 0l-7.53723-4.10638c4.99509-1.51096 11.11033-4.65744 15.16321-11.30584 4.58627-7.55502 3.91097-15.32336 3.16428-19.18083l6.45289 3.50192c.72867.39115 1.17308 1.13773 1.17308 1.95549z" opacity=".15"/><g fill="#101016"><path d="m45.76344 63.1176c-.49128 0-.88882-.39754-.88882-.88883v-21.27454c0-.32637.17881-.62496.46351-.7812l17.02832-9.26671c.42184-.22741.94264-.08593 1.18568.32116.29337.48521.44787 1.04247.44787 1.61187v18.93356c0 1.14402-.62669 2.19429-1.63704 2.74286l-15.11005 8.22859c-.46871.24652-.98083.37324-1.48947.37324zm.88882-21.63563v19.56459l14.8618-8.09318c.43747-.2361.70828-.68919.70828-1.18047v-18.7643z"/><path d="m45.76344 63.1176c-.526 0-1.04333-.12846-1.49469-.3715l-15.11526-8.23032c-1.00167-.54684-1.62489-1.59711-1.62489-2.74286v-18.93357c0-.57114.1545-1.12926.44789-1.61273.24651-.40622.76557-.54944 1.18568-.32029l17.02658 9.26671c.2847.15624.46351.45483.46351.7812v21.27454c0 .2361-.09375.46177-.2604.62843-.16665.16665-.39233.26039-.62842.26039zm-16.45718-30.10899v18.76431c0 .49475.26734.94611.697 1.18047l14.87135 8.09838v-19.5698z"/><path d="m45.7617 63.12281c-.51385 0-1.02597-.12846-1.49295-.38366l-15.11526-8.22859c-1.00427-.54683-1.62836-1.59711-1.62836-2.74112v-18.9327c0-1.14315.62409-2.19429 1.62922-2.74113l15.11439-8.22251c.9357-.50778 2.05194-.50778 2.98417.00087l15.11352 8.22078c1.00513.54857 1.63009 1.59885 1.63009 2.74199v18.9327c0 1.14228-.62322 2.19255-1.62836 2.74112l-15.11526 8.23032c-.46697.25347-.97908.38193-1.4912.38193zm-.00174-39.85223c-.22047 0-.43921.05468-.64058.16405l-15.11526 8.22251c-.43226.23523-.70134.68745-.70134 1.1796v18.9327c0 .49128.26821.94438.70047 1.17873l15.11612 8.23032c.40275.22221.88015.22221 1.28289.00174l15.11526-8.23206c.43226-.23436.70134-.68745.70134-1.17873v-18.9327c0-.49215-.26908-.94438-.70308-1.18047l-15.1135-8.22077c-.19964-.11024-.42185-.16492-.64232-.16492z"/></g></g></g></svg>